{"glyphs":{":":{"x_min":0,"x_max":237,"ha":237,"o":"m 127 483 q 127 511 139 526 q 152 542 173 542 q 205 542 205 507 q 205 480 193 463 q 181 447 160 447 q 127 447 127 483 z m 50 27 q 50 54 62 70 q 75 86 96 86 q 128 86 128 51 q 128 24 115 8 q 103 -9 83 -9 q 50 -9 50 27 z"},"$":{"x_min":0,"x_max":551,"ha":551,"o":"m 453 228 q 453 154 399 109 q 345 64 254 59 l 228 -58 l 188 -58 l 213 59 q 174 60 136 68 q 97 76 69 89 l 69 135 q 101 118 144 109 q 187 99 222 99 l 276 349 q 222 375 201 394 q 180 412 169 436 q 157 460 157 493 q 157 569 209 615 q 260 662 342 664 l 362 758 l 401 758 l 381 664 q 454 662 516 631 l 499 593 q 445 623 374 627 l 321 376 q 381 347 405 327 q 429 308 441 284 q 453 260 453 228 z m 262 99 q 332 103 371 135 q 411 168 411 225 q 411 262 388 288 q 364 314 311 336 z m 335 627 q 270 623 235 588 q 200 553 200 497 q 200 459 218 434 q 236 410 285 387 z"},"?":{"x_min":0,"x_max":390,"ha":390,"o":"m 118 177 l 121 191 q 135 255 161 292 q 187 328 238 364 q 295 405 323 435 q 351 465 365 497 q 380 529 380 566 q 380 619 347 649 q 314 679 258 679 q 190 679 108 630 l 89 672 q 130 696 173 710 q 215 724 264 724 q 342 724 386 683 q 431 642 431 571 q 431 509 399 457 q 367 404 286 346 q 245 316 221 293 q 198 270 186 247 q 173 224 163 177 z m 83 29 q 83 56 95 72 q 107 88 129 88 q 161 88 161 53 q 161 27 149 10 q 137 -7 116 -7 q 83 -7 83 29 z"},"<":{"x_min":0,"x_max":551,"ha":551,"o":"m 513 128 l 67 330 l 67 366 l 513 596 l 513 546 l 122 351 l 513 180 z"},"'":{"x_min":0,"x_max":197,"ha":197,"o":"m 225 714 l 154 456 l 124 456 l 163 714 z"},"=":{"x_min":0,"x_max":551,"ha":551,"o":"m 82 432 l 82 481 l 523 481 l 523 432 z m 82 225 l 82 273 l 523 273 l 523 225 z"},"a":{"x_min":0,"x_max":553,"ha":553,"o":"m 320 539 q 433 539 456 432 l 459 432 l 488 531 l 527 531 l 415 0 l 375 0 l 397 134 l 394 134 q 353 64 303 27 q 252 -10 187 -10 q 50 -10 50 173 q 50 269 86 356 q 123 444 184 491 q 246 539 320 539 z m 198 34 q 242 34 285 64 q 328 95 363 146 q 397 196 415 258 q 433 319 433 362 q 433 400 420 431 q 408 461 383 479 q 358 497 321 497 q 260 497 211 457 q 163 417 131 337 q 100 257 100 178 q 100 104 125 69 q 149 34 198 34 z"},"L":{"x_min":0,"x_max":458,"ha":458,"o":"m 50 0 l 201 714 l 251 714 l 110 47 l 413 47 l 402 0 z"},"3":{"x_min":0,"x_max":551,"ha":551,"o":"m 512 573 q 512 494 460 439 q 409 384 321 369 l 321 367 q 378 355 411 311 q 445 266 445 200 q 445 135 414 86 q 382 38 326 14 q 270 -10 192 -10 q 145 -10 102 0 q 59 10 27 26 l 27 75 q 111 33 195 33 q 291 33 343 77 q 395 121 395 200 q 395 271 352 309 q 308 347 231 347 l 174 347 l 184 394 l 238 394 q 340 394 400 441 q 461 487 461 567 q 461 623 430 652 q 399 682 338 682 q 256 682 170 618 l 146 655 q 187 688 238 706 q 289 724 344 724 q 423 724 468 684 q 512 644 512 573 z"},";":{"x_min":0,"x_max":237,"ha":237,"o":"m 140 116 l 144 105 q 127 58 86 -13 q 45 -84 10 -129 l -26 -129 q 13 -64 43 3 q 73 71 86 116 z m 130 483 q 130 511 142 526 q 155 542 176 542 q 208 542 208 507 q 208 480 196 463 q 184 447 163 447 q 130 447 130 483 z"},"J":{"x_min":0,"x_max":233,"ha":233,"o":"m -88 -176 q -111 -176 -131 -172 q -150 -168 -158 -164 l -153 -119 q -125 -129 -86 -129 q 18 -129 42 -11 l 193 714 l 244 714 l 91 -14 q 74 -97 30 -136 q -14 -176 -88 -176 z"},"V":{"x_min":0,"x_max":527,"ha":527,"o":"m 223 72 q 248 126 284 192 l 563 714 l 620 714 l 230 0 l 187 0 l 98 714 l 147 714 l 204 250 q 217 144 221 72 z"},"\"":{"x_min":0,"x_max":352,"ha":352,"o":"m 222 714 l 151 456 l 121 456 l 160 714 z m 383 714 l 312 456 l 282 456 l 321 714 z"},"7":{"x_min":0,"x_max":551,"ha":551,"o":"m 119 0 l 508 667 l 134 667 l 145 714 l 564 714 l 554 660 l 174 0 z"},"S":{"x_min":0,"x_max":498,"ha":498,"o":"m 437 197 q 437 135 405 87 q 373 39 317 15 q 262 -10 186 -10 q 143 -10 102 -1 q 61 7 18 27 l 18 80 q 98 35 188 35 q 280 35 332 77 q 385 120 385 191 q 385 221 376 242 q 368 263 351 280 q 333 297 306 313 q 279 330 242 350 q 169 387 140 430 q 111 473 111 531 q 111 588 140 632 q 168 676 220 700 q 272 724 336 724 q 384 724 424 716 q 463 707 506 686 l 490 640 q 458 660 416 671 q 375 682 336 682 q 256 682 209 642 q 162 602 162 535 q 162 485 186 452 q 210 419 275 387 q 350 349 379 324 q 408 299 423 269 q 437 238 437 197 z"},"}":{"x_min":0,"x_max":346,"ha":346,"o":"m 162 714 q 226 714 255 689 q 283 664 283 617 q 283 597 275 561 l 248 438 q 239 392 239 376 q 239 338 263 318 q 287 298 336 298 l 326 260 q 265 260 233 236 q 201 212 189 159 l 146 -33 q 130 -101 93 -130 q 56 -158 -11 -158 l -20 -158 l -20 -116 q 27 -115 47 -106 q 68 -97 81 -76 q 94 -56 102 -17 l 138 148 q 151 209 181 240 q 210 271 263 281 l 263 283 q 227 293 210 319 q 193 344 193 376 q 193 403 202 440 l 228 566 q 234 596 234 615 q 234 637 225 649 q 216 661 199 667 q 181 672 142 672 l 152 714 z"},"Z":{"x_min":0,"x_max":551,"ha":551,"o":"m 446 0 l -6 0 l 5 45 l 527 668 l 154 668 l 165 714 l 598 714 l 589 671 l 67 46 l 457 46 z"},"x":{"x_min":0,"x_max":450,"ha":450,"o":"m 216 236 l 24 0 l -35 0 l 195 273 l 75 531 l 124 531 l 225 305 l 407 531 l 466 531 l 247 270 l 373 0 l 325 0 z"},")":{"x_min":0,"x_max":257,"ha":257,"o":"m 221 424 q 221 255 161 113 q 101 -29 -25 -158 l -76 -158 q 49 -24 111 118 q 173 261 173 421 q 173 493 159 564 q 145 636 111 714 l 150 714 q 221 586 221 424 z"},"&":{"x_min":0,"x_max":650,"ha":650,"o":"m 365 681 q 304 681 271 648 q 237 615 237 554 q 237 490 290 417 q 389 460 427 497 q 464 533 464 586 q 464 630 436 656 q 409 681 365 681 z m 227 31 q 280 31 330 52 q 381 72 439 123 l 267 364 q 187 325 154 298 q 121 271 103 238 q 86 204 86 160 q 86 102 124 66 q 162 31 227 31 z m 38 158 q 38 237 86 294 q 135 350 245 399 l 225 432 q 187 494 187 554 q 187 631 236 678 q 286 725 365 725 q 436 725 476 688 q 516 650 516 587 q 516 545 496 512 q 476 478 437 449 q 398 420 312 382 l 473 156 q 509 192 539 242 q 570 292 584 333 l 638 333 q 588 212 499 120 l 589 0 l 529 0 l 465 90 q 406 37 347 14 q 288 -10 217 -10 q 135 -10 87 36 q 38 82 38 158 z"},"_":{"x_min":0,"x_max":391,"ha":391,"o":"m 305 -142 l -89 -142 l -80 -100 l 314 -100 z"},"v":{"x_min":0,"x_max":437,"ha":437,"o":"m 135 0 l 51 531 l 100 531 l 153 172 q 166 91 169 48 l 172 48 q 197 104 235 173 l 433 531 l 483 531 l 190 0 z"},"O":{"x_min":0,"x_max":715,"ha":715,"o":"m 685 445 q 685 320 639 210 q 593 99 516 45 q 439 -10 338 -10 q 216 -10 150 63 q 84 136 84 273 q 84 401 129 506 q 175 611 254 668 q 333 724 436 724 q 557 724 621 652 q 685 579 685 445 z m 429 678 q 344 678 279 629 q 213 580 174 483 q 135 387 135 280 q 135 160 188 98 q 242 35 344 35 q 427 35 491 83 q 555 131 593 230 q 632 328 632 440 q 632 557 581 618 q 530 678 429 678 z"},"(":{"x_min":0,"x_max":257,"ha":257,"o":"m 51 132 q 51 299 110 441 q 170 583 297 714 l 348 714 q 222 579 160 437 q 99 294 99 135 q 99 -20 161 -158 l 122 -158 q 51 -30 51 132 z"},"C":{"x_min":0,"x_max":571,"ha":571,"o":"m 469 678 q 373 678 298 627 q 222 576 178 479 q 134 381 134 263 q 134 153 188 94 q 242 35 343 35 q 411 35 491 60 l 491 14 q 415 -10 337 -10 q 214 -10 148 61 q 83 132 83 261 q 83 391 134 500 q 185 608 273 666 q 361 724 469 724 q 556 724 619 691 l 597 647 q 570 662 536 670 q 502 678 469 678 z"},"W":{"x_min":0,"x_max":831,"ha":831,"o":"m 497 655 q 484 618 467 580 q 450 542 192 0 l 152 0 l 116 714 l 165 714 l 188 210 l 190 130 l 189 88 l 192 88 q 233 198 275 282 l 487 714 l 538 714 l 568 285 q 577 155 577 85 l 580 85 q 595 127 610 165 q 625 202 851 714 l 904 714 q 821 536 742 357 q 664 178 582 0 l 544 0 l 506 525 q 500 594 500 632 l 501 655 z"},"A":{"x_min":0,"x_max":517,"ha":517,"o":"m 393 254 l 143 254 l 3 0 l -54 0 l 347 717 l 380 717 l 478 0 l 427 0 z m 387 299 l 368 441 q 353 559 349 637 q 334 606 318 574 q 301 541 168 299 z"},"f":{"x_min":0,"x_max":282,"ha":282,"o":"m -64 -240 q -87 -240 -114 -231 l -114 -187 q -88 -195 -65 -195 q -22 -195 0 -169 q 23 -143 37 -78 l 157 491 l 57 491 l 64 524 l 164 531 l 181 609 q 198 691 238 728 q 278 765 349 765 q 385 765 430 750 l 418 711 q 375 724 346 724 q 299 724 271 698 q 243 672 230 611 l 213 531 l 334 531 l 326 491 l 205 491 l 82 -90 q 66 -168 31 -204 q -3 -240 -64 -240 z"},"Q":{"x_min":0,"x_max":715,"ha":715,"o":"m 685 445 q 685 339 651 241 q 617 142 560 83 q 503 23 426 1 l 556 -170 l 487 -170 l 374 -8 l 338 -10 q 216 -10 150 63 q 84 136 84 273 q 84 401 129 506 q 175 611 254 668 q 333 724 436 724 q 557 724 621 652 q 685 579 685 445 z m 429 678 q 344 678 279 629 q 213 580 174 483 q 135 387 135 280 q 135 160 188 98 q 242 35 344 35 q 427 35 491 83 q 555 131 593 230 q 632 328 632 440 q 632 557 581 618 q 530 678 429 678 z"},"w":{"x_min":0,"x_max":680,"ha":680,"o":"m 409 0 l 380 335 q 373 444 373 465 l 370 465 q 354 420 300 323 l 126 0 l 69 0 l 59 531 l 104 531 l 110 130 l 109 53 l 112 53 q 142 119 185 198 l 367 531 l 405 531 l 436 198 q 443 126 443 53 l 446 53 l 458 83 l 507 198 l 663 531 l 710 531 l 462 0 z"},"-":{"x_min":0,"x_max":307,"ha":307,"o":"m 40 245 l 49 289 l 272 289 l 264 245 z"},"E":{"x_min":0,"x_max":521,"ha":521,"o":"m 405 0 l 50 0 l 201 714 l 556 714 l 546 668 l 241 668 l 184 398 l 472 398 l 462 352 l 175 352 l 109 46 l 415 46 z"},"s":{"x_min":0,"x_max":404,"ha":404,"o":"m 348 144 q 348 74 298 32 q 248 -10 161 -10 q 77 -10 12 27 l 12 79 q 48 57 87 44 q 125 32 159 32 q 227 32 262 60 q 298 88 298 140 q 298 161 290 176 q 283 192 266 206 q 249 221 201 248 q 129 287 104 319 q 78 351 78 397 q 78 459 126 499 q 174 539 253 539 q 290 539 330 531 q 371 522 399 508 l 382 465 q 315 496 253 496 q 196 496 162 470 q 128 444 128 403 q 128 376 136 360 q 145 344 166 326 q 187 309 224 289 q 280 258 303 239 q 326 219 337 196 q 348 174 348 144 z"},">":{"x_min":0,"x_max":551,"ha":551,"o":"m 83 180 l 474 351 l 83 546 l 83 596 l 530 366 l 530 330 l 83 128 z"},"l":{"x_min":0,"x_max":232,"ha":232,"o":"m 83 0 l 37 0 l 200 760 l 246 760 z"},"8":{"x_min":0,"x_max":551,"ha":551,"o":"m 360 725 q 439 725 486 684 q 532 642 532 572 q 532 504 491 457 q 450 410 352 373 q 416 335 445 290 q 474 245 474 188 q 474 131 446 86 q 417 42 365 16 q 312 -10 238 -10 q 151 -10 99 35 q 48 81 48 159 q 48 237 97 290 q 146 344 254 382 q 205 417 184 456 q 162 495 162 544 q 162 622 218 673 q 273 725 360 725 z m 298 358 q 191 322 145 276 q 98 230 98 166 q 98 100 136 65 q 174 31 243 31 q 325 31 375 75 q 425 120 425 189 q 425 240 395 281 q 364 323 298 358 z m 355 683 q 292 683 250 643 q 209 603 209 544 q 209 500 229 466 q 250 433 306 397 q 400 427 442 467 q 485 507 485 568 q 485 621 450 652 q 416 683 355 683 z"},"\\":{"x_min":0,"x_max":313,"ha":313,"o":"m 144 714 l 262 0 l 222 0 l 102 714 z"},"e":{"x_min":0,"x_max":453,"ha":453,"o":"m 229 -10 q 145 -10 97 44 q 50 97 50 193 q 50 281 84 362 q 119 443 180 491 q 241 539 314 539 q 370 539 403 509 q 436 479 436 428 q 436 340 356 293 q 276 247 119 247 l 103 247 q 100 226 100 199 q 100 119 136 76 q 172 34 240 34 q 305 34 375 70 l 375 24 q 307 -10 229 -10 z m 308 497 q 244 497 189 441 q 134 384 110 290 l 134 290 q 386 290 386 422 q 386 455 365 476 q 344 497 308 497 z"},"b":{"x_min":0,"x_max":562,"ha":562,"o":"m 244 -8 q 189 -8 153 21 q 118 50 106 102 l 103 102 l 76 0 l 37 0 l 197 760 l 243 760 q 179 453 164 393 l 167 393 q 212 469 264 505 q 316 541 377 541 q 514 541 514 358 q 514 259 477 172 q 440 86 379 39 q 318 -8 244 -8 z m 366 497 q 322 497 278 467 q 235 437 200 384 q 165 332 148 270 q 131 208 131 169 q 131 106 162 70 q 193 34 243 34 q 304 34 353 75 q 401 115 433 194 q 464 273 464 353 q 464 427 440 462 q 416 497 366 497 z"},"%":{"x_min":0,"x_max":760,"ha":760,"o":"m 712 714 l 156 0 l 104 0 l 658 714 z m 742 299 q 742 213 718 139 q 693 65 651 27 q 609 -11 555 -11 q 500 -11 471 26 q 442 62 442 135 q 442 213 467 287 q 493 361 535 399 q 577 437 629 437 q 688 437 715 402 q 742 367 742 299 z m 627 401 q 588 401 555 365 q 523 330 503 267 q 484 203 484 138 q 484 82 504 53 q 524 25 559 25 q 623 25 661 106 q 700 188 700 295 q 700 348 683 375 q 665 401 627 401 z m 371 585 q 371 500 347 425 q 322 351 280 313 q 238 275 184 275 q 129 275 100 312 q 71 349 71 421 q 71 499 96 573 q 122 647 164 685 q 206 723 258 723 q 371 723 371 585 z m 256 687 q 217 687 185 652 q 153 617 133 553 q 113 489 113 424 q 113 368 133 339 q 153 311 188 311 q 229 311 260 346 q 292 381 311 446 q 329 510 329 581 q 329 634 312 661 q 294 687 256 687 z"},"m":{"x_min":0,"x_max":855,"ha":855,"o":"m 347 0 l 419 329 q 431 390 431 408 q 431 497 356 497 q 304 497 258 464 q 212 431 181 372 q 149 313 132 232 l 83 0 l 35 0 l 148 531 l 187 531 l 171 428 l 174 428 q 213 483 262 511 q 312 539 366 539 q 418 539 446 506 q 474 474 475 411 l 478 411 q 516 474 566 507 q 617 539 675 539 q 732 539 764 509 q 796 479 796 423 q 796 409 795 395 q 793 382 785 337 l 711 0 l 662 0 l 735 332 q 747 391 747 418 q 747 456 726 476 q 705 497 668 497 q 591 497 532 430 q 474 363 450 253 l 397 0 z"},"#":{"x_min":0,"x_max":646,"ha":646,"o":"m 190 259 l 248 453 l 103 453 l 107 492 l 259 492 l 324 714 l 368 714 l 302 492 l 480 492 l 546 714 l 588 714 l 522 492 l 661 492 l 657 453 l 510 453 l 452 259 l 600 259 l 596 220 l 440 220 l 375 0 l 331 0 l 397 220 l 221 220 l 156 0 l 113 0 l 178 220 l 40 220 l 44 259 z m 232 259 l 409 259 l 468 453 l 291 453 z"},",":{"x_min":0,"x_max":220,"ha":220,"o":"m 122 116 l 126 105 q 109 60 70 -9 q 31 -78 -8 -129 l -44 -129 q -5 -64 25 3 q 55 71 68 116 z"},"n":{"x_min":0,"x_max":558,"ha":558,"o":"m 373 0 l 446 338 q 456 383 456 414 q 456 453 435 475 q 414 497 369 497 q 314 497 266 464 q 218 432 185 373 q 152 314 135 233 l 85 0 l 37 0 l 150 531 l 190 531 l 172 423 l 175 423 q 255 539 378 539 q 441 539 473 508 q 505 477 505 418 q 505 384 493 329 l 421 0 z"},"h":{"x_min":0,"x_max":558,"ha":558,"o":"m 373 0 l 446 338 q 456 383 456 414 q 456 453 435 475 q 414 497 369 497 q 314 497 266 464 q 218 432 185 373 q 152 313 135 233 l 85 0 l 37 0 l 199 760 l 246 760 l 204 559 q 183 461 172 423 l 175 423 q 213 478 266 509 q 319 539 378 539 q 438 539 472 507 q 505 476 505 418 q 505 384 493 329 l 421 0 z"},"z":{"x_min":0,"x_max":433,"ha":433,"o":"m 342 0 l -14 0 l -7 35 l 372 490 l 107 490 l 115 531 l 437 531 l 428 490 l 56 41 l 350 41 z"},"B":{"x_min":0,"x_max":587,"ha":587,"o":"m 201 714 l 386 714 q 479 714 528 673 q 577 632 577 555 q 577 480 533 434 q 489 387 409 373 l 409 371 q 470 356 501 316 q 532 275 532 216 q 532 116 464 58 q 395 0 273 0 l 50 0 z m 184 396 l 320 396 q 420 396 473 436 q 525 475 525 552 q 525 610 487 640 q 449 670 375 670 l 242 670 z m 175 352 l 109 44 l 276 44 q 374 44 427 87 q 480 129 480 212 q 480 283 436 317 q 392 352 302 352 z"},"K":{"x_min":0,"x_max":548,"ha":548,"o":"m 478 0 l 424 0 l 257 385 l 164 310 l 100 0 l 50 0 l 201 714 l 251 714 l 174 361 l 239 420 l 571 714 l 638 714 l 297 416 z"},"R":{"x_min":0,"x_max":559,"ha":559,"o":"m 164 309 l 100 0 l 50 0 l 201 714 l 349 714 q 559 714 559 538 q 559 449 509 390 q 458 331 371 316 q 469 27 479 0 l 425 0 l 322 309 z m 175 354 l 298 354 q 399 354 453 401 q 506 447 506 538 q 506 669 345 669 l 242 669 z"},"T":{"x_min":0,"x_max":481,"ha":481,"o":"m 214 0 l 164 0 l 305 668 l 94 668 l 104 714 l 579 714 l 570 668 l 355 668 z"},"P":{"x_min":0,"x_max":559,"ha":559,"o":"m 559 538 q 559 294 261 294 l 163 294 l 100 0 l 50 0 l 201 714 l 355 714 q 454 714 506 669 q 559 624 559 538 z m 171 339 l 264 339 q 387 339 447 386 q 506 433 506 535 q 506 669 345 669 l 242 669 z"},"|":{"x_min":0,"x_max":551,"ha":551,"o":"m 285 762 l 334 762 l 334 -249 l 285 -249 z"},"t":{"x_min":0,"x_max":301,"ha":301,"o":"m 339 531 l 330 491 l 192 491 l 126 181 q 115 133 115 101 q 115 33 177 33 q 210 33 251 46 l 251 4 q 202 -10 168 -10 q 120 -10 93 17 q 67 43 67 94 q 67 130 81 195 l 144 491 l 55 491 l 62 524 l 152 532 l 199 656 l 226 656 l 199 531 z"},"M":{"x_min":0,"x_max":815,"ha":815,"o":"m 377 100 l 735 714 l 808 714 l 661 0 l 612 0 l 705 440 q 744 620 754 658 l 751 658 l 370 0 l 345 0 l 237 658 l 234 658 q 224 583 196 450 l 100 0 l 53 0 l 204 714 l 274 714 l 374 100 z"},"g":{"x_min":0,"x_max":508,"ha":508,"o":"m 537 531 l 529 492 l 410 487 q 423 473 431 446 q 440 418 440 390 q 440 337 413 289 q 387 242 341 218 q 295 195 237 195 q 206 195 199 199 q 160 183 139 164 q 117 144 117 124 q 117 104 133 93 q 148 81 188 77 l 247 72 q 416 57 416 -57 q 416 -112 384 -154 q 353 -195 293 -218 q 233 -240 151 -240 q 60 -240 9 -205 q -43 -170 -43 -106 q -43 9 108 57 q 70 78 70 117 q 70 177 163 216 q 128 233 109 267 q 90 301 90 344 q 90 398 116 444 q 142 489 188 515 q 234 541 289 541 q 323 541 361 531 z m 7 -101 q 7 -150 46 -174 q 86 -198 156 -198 q 255 -198 311 -162 q 366 -125 366 -62 q 366 -21 336 2 q 305 24 229 30 l 151 37 q 74 15 41 -19 q 7 -53 7 -101 z m 139 347 q 139 292 168 264 q 196 236 248 236 q 291 236 323 254 q 355 272 373 310 q 391 347 391 392 q 391 443 364 471 q 336 499 287 499 q 242 499 208 478 q 175 457 157 421 q 139 386 139 347 z"},"j":{"x_min":0,"x_max":232,"ha":232,"o":"m -81 -240 q -111 -240 -136 -231 l -136 -186 q -113 -197 -81 -197 q -41 -197 -18 -172 q 4 -146 17 -85 l 147 531 l 194 531 l 63 -90 q 46 -170 11 -205 q -24 -240 -81 -240 z m 171 667 q 171 694 182 710 q 192 726 211 726 q 239 726 239 691 q 239 663 228 647 q 217 631 200 631 q 186 631 178 640 q 171 650 171 667 z"},"i":{"x_min":0,"x_max":232,"ha":232,"o":"m 85 0 l 37 0 l 150 531 l 197 531 z m 171 667 q 171 694 182 710 q 192 726 211 726 q 239 726 239 691 q 239 663 228 647 q 217 631 200 631 q 186 631 178 640 q 171 650 171 667 z"},"y":{"x_min":0,"x_max":449,"ha":449,"o":"m 60 531 l 109 531 l 149 263 q 174 92 176 44 l 181 44 q 202 95 272 223 l 442 531 l 492 531 l 144 -99 q 109 -161 84 -186 q 60 -211 29 -226 q -2 -240 -43 -240 q -76 -240 -106 -230 l -106 -185 q -71 -198 -39 -198 q 0 -198 33 -174 q 65 -150 96 -94 q 127 -38 145 -4 z"},"@":{"x_min":0,"x_max":842,"ha":842,"o":"m 824 419 q 824 332 797 261 q 770 190 721 150 q 673 110 618 110 q 570 110 543 137 q 515 164 515 207 l 513 207 q 487 160 448 135 q 410 110 366 110 q 312 110 279 146 q 247 181 247 244 q 247 320 278 382 q 309 444 365 479 q 421 514 492 514 q 552 514 615 489 l 574 335 q 555 267 555 227 q 555 192 572 173 q 589 153 621 153 q 663 153 699 189 q 735 225 757 285 q 778 346 778 408 q 778 484 746 543 q 714 603 655 635 q 595 668 512 668 q 397 668 305 615 q 212 562 161 467 q 109 371 109 252 q 109 111 185 33 q 260 -46 397 -46 q 498 -46 602 -6 l 602 -50 q 500 -90 393 -90 q 294 -90 219 -50 q 143 -9 102 67 q 61 144 61 248 q 61 383 120 489 q 180 595 285 654 q 390 712 516 712 q 608 712 677 677 q 747 641 785 573 q 824 504 824 419 z m 492 473 q 437 473 392 444 q 348 416 323 364 q 298 312 298 247 q 298 202 318 177 q 337 153 373 153 q 422 153 461 196 q 500 240 522 321 l 560 462 q 528 473 492 473 z"},".":{"x_min":0,"x_max":237,"ha":237,"o":"m 40 27 q 40 54 52 70 q 64 86 86 86 q 118 86 118 51 q 118 25 106 8 q 94 -9 73 -9 q 40 -9 40 27 z"},"p":{"x_min":0,"x_max":561,"ha":561,"o":"m 243 -8 q 131 -8 107 99 l 105 99 q 99 64 32 -240 l -16 -240 l 148 531 l 188 531 l 166 397 l 169 397 q 213 472 264 506 q 315 541 376 541 q 442 541 478 496 q 513 451 513 358 q 513 263 478 177 q 443 91 382 42 q 320 -8 243 -8 z m 365 497 q 323 497 280 469 q 238 440 201 387 q 165 333 147 271 q 130 208 130 169 q 130 108 160 71 q 190 34 242 34 q 303 34 352 75 q 401 116 432 194 q 463 272 463 353 q 463 497 365 497 z"},"X":{"x_min":0,"x_max":474,"ha":474,"o":"m 429 0 l 377 0 l 253 331 l -4 0 l -66 0 l 231 374 l 98 714 l 150 714 l 267 408 l 503 714 l 561 714 l 290 363 z"},"*":{"x_min":0,"x_max":555,"ha":555,"o":"m 407 752 l 354 554 l 568 558 l 564 506 l 361 520 l 449 324 l 393 306 l 327 510 l 188 340 l 150 378 l 305 533 l 114 594 l 133 644 l 325 562 l 348 761 z"},"Y":{"x_min":0,"x_max":471,"ha":471,"o":"m 241 315 l 507 714 l 564 714 l 256 259 l 203 0 l 152 0 l 210 266 l 94 714 l 143 714 z"},"c":{"x_min":0,"x_max":433,"ha":433,"o":"m 233 -10 q 148 -10 99 44 q 50 98 50 194 q 50 288 86 370 q 122 453 183 496 q 244 539 324 539 q 390 539 442 518 l 428 474 q 376 497 322 497 q 259 497 208 459 q 158 422 129 351 q 100 280 100 195 q 100 118 136 76 q 172 34 238 34 q 272 34 302 41 q 332 47 366 63 l 366 18 q 310 -10 233 -10 z"},"!":{"x_min":0,"x_max":245,"ha":245,"o":"m 121 184 l 91 184 l 190 714 l 248 714 z m 39 28 q 39 55 51 71 q 63 87 85 87 q 117 87 117 52 q 117 26 105 9 q 93 -8 72 -8 q 39 -8 39 28 z"},"/":{"x_min":0,"x_max":313,"ha":313,"o":"m 404 714 l 5 0 l -49 0 l 349 714 z"},"[":{"x_min":0,"x_max":262,"ha":262,"o":"m 180 -158 l -28 -158 l 156 714 l 365 714 l 356 670 l 195 670 l 29 -114 l 190 -114 z"},"6":{"x_min":0,"x_max":551,"ha":551,"o":"m 83 209 q 83 347 134 475 q 186 603 266 663 q 346 723 453 723 q 513 723 542 713 l 533 669 q 491 680 450 680 q 336 680 258 595 q 180 510 144 350 l 148 350 q 181 396 228 420 q 275 444 331 444 q 410 444 453 395 q 497 346 497 257 q 497 181 468 120 q 438 59 384 24 q 330 -10 259 -10 q 175 -10 129 48 q 83 106 83 209 z m 265 33 q 320 33 361 62 q 402 90 425 141 q 447 191 447 253 q 447 324 414 363 q 381 401 319 401 q 279 401 244 385 q 208 370 181 343 q 153 316 143 287 q 132 258 132 202 q 132 122 167 78 q 203 33 265 33 z"},"r":{"x_min":0,"x_max":367,"ha":367,"o":"m 348 540 q 382 540 408 533 l 398 488 q 375 495 343 495 q 297 495 255 464 q 214 433 181 370 q 147 308 132 235 l 83 0 l 35 0 l 148 531 l 187 531 l 173 431 l 176 431 q 211 477 236 497 q 260 518 288 529 q 315 540 348 540 z"},"2":{"x_min":0,"x_max":551,"ha":551,"o":"m 444 0 l 19 0 l 30 51 l 249 247 q 346 333 388 382 q 430 431 449 473 q 469 516 469 561 q 469 616 437 648 q 405 680 341 680 q 255 680 178 617 l 152 653 q 240 724 344 724 q 429 724 475 683 q 522 641 522 567 q 522 513 501 465 q 479 417 432 362 q 384 307 280 214 l 93 49 l 93 47 l 452 47 z"},"{":{"x_min":0,"x_max":346,"ha":346,"o":"m 207 -158 q 82 -158 82 -61 q 82 -39 90 -5 l 117 118 q 126 162 126 180 q 126 258 29 258 l 39 296 q 101 296 132 320 q 164 344 176 397 l 219 589 q 234 655 271 684 q 308 714 376 714 l 390 714 l 382 672 q 340 671 319 662 q 298 653 285 632 q 272 611 263 573 l 227 408 q 212 343 182 313 q 152 284 102 275 l 102 273 q 135 264 154 240 q 172 215 172 180 q 172 155 160 100 l 137 -10 q 131 -38 131 -59 q 131 -89 149 -103 q 167 -116 217 -116 l 217 -158 z"},"9":{"x_min":0,"x_max":551,"ha":551,"o":"m 517 504 q 517 363 468 236 q 418 109 339 50 q 260 -10 147 -10 q 91 -10 56 1 l 56 45 q 99 31 150 31 q 381 31 456 360 l 452 360 q 384 266 273 266 q 194 266 148 317 q 103 369 103 456 q 103 532 132 593 q 161 655 215 689 q 270 723 341 723 q 426 723 471 667 q 517 610 517 504 z m 335 680 q 280 680 239 652 q 197 623 175 572 q 153 521 153 460 q 153 389 186 350 q 219 311 280 311 q 320 311 357 327 q 393 343 420 370 q 446 396 457 425 q 468 454 468 511 q 468 592 433 636 q 398 680 335 680 z"}," ":{"x_min":0,"x_max":260,"ha":260,"o":""},"I":{"x_min":0,"x_max":246,"ha":246,"o":"m 50 0 l 201 714 l 249 714 l 98 0 z"},"H":{"x_min":0,"x_max":667,"ha":667,"o":"m 519 0 l 470 0 l 544 351 l 173 351 l 100 0 l 50 0 l 201 714 l 251 714 l 183 397 l 554 397 l 621 714 l 670 714 z"},"4":{"x_min":0,"x_max":551,"ha":551,"o":"m 523 181 l 394 181 l 355 0 l 308 0 l 347 181 l 11 181 l 21 228 l 451 721 l 509 721 l 404 224 l 533 224 z m 356 224 q 395 404 414 497 q 434 589 456 670 l 454 670 q 422 625 391 589 l 73 224 z"},"~":{"x_min":0,"x_max":551,"ha":551,"o":"m 171 364 q 147 364 118 349 q 89 334 62 305 l 62 351 q 115 405 176 405 q 206 405 232 398 q 258 392 308 370 q 370 342 415 342 q 441 342 468 356 q 494 370 525 403 l 525 356 q 471 301 411 301 q 354 301 279 336 q 249 350 224 357 q 199 364 171 364 z"},"D":{"x_min":0,"x_max":659,"ha":659,"o":"m 629 429 q 629 306 575 204 q 522 102 429 51 q 335 0 211 0 l 50 0 l 201 714 l 350 714 q 488 714 558 642 q 629 570 629 429 z m 210 44 q 320 44 403 90 q 485 136 530 225 q 575 313 575 426 q 575 669 343 669 l 242 669 l 108 44 z"},"^":{"x_min":0,"x_max":511,"ha":511,"o":"m 34 278 l 321 720 l 365 720 l 492 278 l 441 278 l 335 673 l 91 278 z"},"0":{"x_min":0,"x_max":551,"ha":551,"o":"m 525 496 q 525 398 505 298 q 485 199 448 129 q 411 60 358 25 q 306 -10 240 -10 q 154 -10 111 52 q 68 114 68 241 q 68 332 90 427 q 111 523 150 591 q 189 658 241 692 q 294 725 359 725 q 525 725 525 496 z m 353 682 q 288 682 235 627 q 183 572 150 466 q 118 361 118 246 q 118 138 149 85 q 179 33 245 33 q 313 33 364 88 q 416 143 445 252 q 475 362 475 491 q 475 588 446 635 q 417 682 353 682 z"},"F":{"x_min":0,"x_max":479,"ha":479,"o":"m 100 0 l 50 0 l 201 714 l 547 714 l 537 668 l 242 668 l 177 365 l 455 365 l 445 319 l 167 319 z"},"`":{"x_min":0,"x_max":554,"ha":554,"o":"m 374 606 l 342 606 q 317 631 286 677 q 255 722 238 756 l 238 766 l 294 766 q 316 703 374 618 z"},"k":{"x_min":0,"x_max":461,"ha":461,"o":"m 132 233 l 429 531 l 490 531 l 259 302 l 404 0 l 352 0 l 223 273 l 123 181 l 84 0 l 37 0 l 198 760 l 245 760 l 164 379 l 130 233 z"},"u":{"x_min":0,"x_max":558,"ha":558,"o":"m 186 531 l 112 190 q 101 138 101 113 q 101 77 124 55 q 147 34 192 34 q 246 34 293 66 q 341 98 373 157 q 406 217 422 294 l 473 531 l 521 531 l 408 0 l 369 0 l 383 100 l 380 100 q 298 -8 183 -8 q 119 -8 86 22 q 53 53 53 111 q 53 140 64 194 l 137 531 z"},"]":{"x_min":0,"x_max":262,"ha":262,"o":"m 99 714 l 307 714 l 123 -158 l -86 -158 l -77 -114 l 84 -114 l 250 670 l 89 670 z"},"U":{"x_min":0,"x_max":669,"ha":669,"o":"m 681 714 l 580 237 q 552 105 484 48 q 416 -10 301 -10 q 86 -10 86 186 q 86 227 99 284 l 190 714 l 240 714 l 146 275 q 136 231 136 185 q 136 34 303 34 q 398 34 453 81 q 508 128 531 237 l 632 714 z"},"o":{"x_min":0,"x_max":549,"ha":549,"o":"m 317 541 q 405 541 453 488 q 501 435 501 342 q 501 246 466 162 q 431 78 371 34 q 310 -10 231 -10 q 141 -10 94 44 q 48 97 48 197 q 48 290 83 372 q 119 453 180 497 q 240 541 317 541 z m 313 499 q 252 499 204 461 q 156 422 127 351 q 98 279 98 199 q 98 32 236 32 q 298 32 346 70 q 394 108 423 181 q 451 255 451 343 q 451 418 416 458 q 380 499 313 499 z"},"N":{"x_min":0,"x_max":670,"ha":670,"o":"m 522 0 l 480 0 l 228 627 l 224 627 q 213 554 201 494 q 188 433 96 0 l 50 0 l 201 714 l 240 714 l 495 82 l 499 82 q 510 168 535 285 l 627 714 l 673 714 z"},"+":{"x_min":0,"x_max":551,"ha":551,"o":"m 275 328 l 79 328 l 79 377 l 275 377 l 275 574 l 324 574 l 324 377 l 520 377 l 520 328 l 324 328 l 324 133 l 275 133 z"},"G":{"x_min":0,"x_max":671,"ha":671,"o":"m 418 359 l 616 359 l 543 26 q 440 -10 345 -10 q 220 -10 151 62 q 83 133 83 267 q 83 396 134 503 q 186 610 273 667 q 360 724 466 724 q 521 724 565 715 q 609 706 655 686 l 636 640 q 583 663 544 670 q 505 678 462 678 q 372 678 296 626 q 221 573 177 479 q 134 384 134 267 q 134 155 190 95 q 246 35 349 35 q 425 35 500 58 l 557 315 l 409 315 z"},"q":{"x_min":0,"x_max":565,"ha":565,"o":"m 318 539 q 371 539 407 511 q 444 482 456 429 l 459 429 l 486 531 l 525 531 l 365 -229 l 319 -229 l 367 0 l 398 138 l 395 138 q 350 62 298 26 q 246 -10 185 -10 q 48 -10 48 173 q 48 271 85 358 q 122 445 183 492 q 244 539 318 539 z m 196 34 q 241 34 285 65 q 329 95 363 148 q 397 202 414 264 q 431 326 431 362 q 431 425 400 461 q 369 497 319 497 q 258 497 209 457 q 161 416 129 337 q 98 258 98 178 q 98 108 120 71 q 143 34 196 34 z"},"d":{"x_min":0,"x_max":553,"ha":553,"o":"m 320 539 q 432 539 456 432 l 458 432 q 464 464 528 760 l 576 760 l 415 0 l 375 0 l 397 134 l 394 134 q 310 -10 187 -10 q 50 -10 50 173 q 50 267 85 354 q 120 440 181 490 q 243 539 320 539 z m 198 34 q 242 34 285 65 q 329 95 364 147 q 398 198 416 260 q 433 321 433 362 q 433 423 403 460 q 373 497 321 497 q 260 497 211 457 q 163 416 131 338 q 100 260 100 178 q 100 34 198 34 z"},"1":{"x_min":0,"x_max":551,"ha":551,"o":"m 262 0 l 211 0 l 321 515 q 330 560 357 658 q 336 641 320 628 q 304 616 198 550 l 173 588 l 371 714 l 415 714 z"},"5":{"x_min":0,"x_max":551,"ha":551,"o":"m 284 429 q 376 429 427 379 q 478 330 478 243 q 478 127 406 59 q 333 -10 207 -10 q 166 -10 120 0 q 75 10 43 25 l 43 77 q 126 33 209 33 q 311 33 369 89 q 428 145 428 242 q 428 311 387 349 q 345 388 277 388 q 212 388 158 368 l 126 392 l 220 714 l 525 714 l 516 667 l 252 667 l 179 415 q 227 429 284 429 z"}}}
